<svg width="100" height="100" viewBox="0 0 100 100" fill="none" xmlns="http://www.w3.org/2000/svg">
<circle cx="50" cy="50" r="50" fill="#29A71A"/>
<path d="M49.7572 21H49.7428C33.8908 21 21 33.8944 21 49.75C21 56.0391 23.0269 61.8681 26.4733 66.6011L22.8903 77.2817L33.9411 73.7491C38.4872 76.7606 43.9102 78.5 49.7572 78.5C65.6092 78.5 78.5 65.602 78.5 49.75C78.5 33.898 65.6092 21 49.7572 21ZM66.4861 61.5986C65.7925 63.5572 63.0397 65.1816 60.8439 65.6559C59.3417 65.9758 57.3795 66.2309 50.7742 63.4925C42.3253 59.9922 36.8844 51.4067 36.4603 50.8497C36.0542 50.2927 33.0463 46.3036 33.0463 42.178C33.0463 38.0523 35.1414 36.0434 35.9859 35.1809C36.6795 34.473 37.8259 34.1495 38.9256 34.1495C39.2814 34.1495 39.6012 34.1675 39.8888 34.1819C40.7333 34.2178 41.1573 34.2681 41.7144 35.6014C42.408 37.2725 44.097 41.3981 44.2983 41.8222C44.5031 42.2463 44.708 42.8213 44.4205 43.3783C44.1509 43.9533 43.9137 44.2084 43.4897 44.6972C43.0656 45.1859 42.6631 45.5597 42.2391 46.0844C41.8509 46.5408 41.4125 47.0295 41.9013 47.8741C42.39 48.7006 44.0791 51.457 46.5659 53.6708C49.7752 56.5278 52.377 57.4406 53.3078 57.8288C54.0014 58.1162 54.828 58.048 55.3347 57.5089C55.978 56.8153 56.7722 55.6653 57.5808 54.5333C58.1558 53.7211 58.8817 53.6205 59.6436 53.908C60.4198 54.1775 64.5275 56.208 65.372 56.6284C66.2166 57.0525 66.7736 57.2537 66.9784 57.6095C67.1797 57.9653 67.1797 59.6364 66.4861 61.5986Z" fill="white"/>
</svg>
