<svg width="60" height="60" viewBox="0 0 60 60" fill="none" xmlns="http://www.w3.org/2000/svg">
<path d="M36.67 4.82422C35.201 4.82422 33.7948 5.42035 32.7734 6.47617L13.6462 26.2469C11.6127 28.3488 11.6127 31.6847 13.6462 33.7865C15.7771 35.9891 19.3086 35.9891 21.4395 33.7865L40.5667 14.0158C43.8953 10.5753 41.4572 4.82422 36.67 4.82422Z" fill="#47C5FB"/>
<path d="M36.3726 28.0566C34.887 28.0566 33.465 28.6595 32.432 29.7272L24.6594 37.7613C22.614 39.8756 22.6016 43.2272 24.6313 45.3565C26.7806 47.6114 30.3744 47.6247 32.5404 45.3858L36.1004 41.7061L40.3131 37.3517C43.6791 33.8724 41.2136 28.0566 36.3726 28.0566Z" fill="#47C5FB"/>
<path d="M32.2081 45.7311C30.1806 47.8268 30.1806 51.1527 32.2081 53.2483L32.7109 53.768C33.7291 54.8205 35.1309 55.4148 36.5954 55.4148C41.3621 55.4148 43.7949 49.6931 40.4879 46.2601L39.9863 45.7394C37.8632 43.5355 34.3358 43.5317 32.2081 45.7311Z" fill="#00569E"/>
<path d="M24.5847 45.3996C22.5397 43.3014 22.5335 39.9575 24.5707 37.8517C26.6971 35.6538 30.2202 35.6505 32.3506 37.8445L32.442 37.9387C34.4803 40.0378 34.4834 43.3762 32.449 45.4791C30.3254 47.6742 26.808 47.6807 24.6762 45.4935L24.5847 45.3996Z" fill="#00B5F8"/>
<path d="M32.5773 45.3463C31.5654 46.3923 32.6452 48.0912 34.0219 47.619C34.5221 47.4474 34.8809 47.0059 34.9466 46.4812C35.1119 45.1612 33.5022 44.3902 32.5773 45.3463Z" fill="url(#paint0_linear_35_1079)" fill-opacity="0.8"/>
<defs>
<linearGradient id="paint0_linear_35_1079" x1="28.8417" y1="44.2876" x2="33.8375" y2="46.0292" gradientUnits="userSpaceOnUse">
<stop/>
<stop offset="1" stop-opacity="0"/>
</linearGradient>
</defs>
</svg>
