<svg width="60" height="60" viewBox="0 0 60 60" fill="none" xmlns="http://www.w3.org/2000/svg">
<g clip-path="url(#clip0_35_1346)">
<path d="M3 22.2241C3 15.4951 3 12.1305 4.30957 9.56035C5.46149 7.29957 7.29957 5.46149 9.56035 4.30957C12.1305 3 15.4951 3 22.2241 3H36.8952C43.6243 3 46.9888 3 49.559 4.30957C51.8198 5.46149 53.6578 7.29957 54.8098 9.56035C56.1193 12.1305 56.1193 15.4951 56.1193 22.2241V36.8952C56.1193 43.6243 56.1193 46.9888 54.8098 49.559C53.6578 51.8198 51.8198 53.6578 49.559 54.8098C46.9888 56.1193 43.6243 56.1193 36.8952 56.1193H22.2241C15.4951 56.1193 12.1305 56.1193 9.56035 54.8098C7.29957 53.6578 5.46149 51.8198 4.30957 49.559C3 46.9888 3 43.6243 3 36.8952V22.2241Z" fill="#470137"/>
<path d="M30.7875 18.6203L24.1595 29.8405L31.2507 41.7551C31.3981 42.0253 31.2507 42.0849 31.0369 42.0849H25.9769C25.6205 42.0849 25.3711 42.072 25.2285 41.8282C24.753 40.878 24.2779 39.9339 23.8032 38.9958C23.3277 38.058 22.8229 37.1017 22.2888 36.1267C21.7542 35.1525 21.2257 34.1657 20.703 33.1663C20.2275 34.1411 19.6989 35.1158 19.1885 36.0902C18.6774 37.065 18.1726 38.0335 17.6741 38.9958C17.1753 39.9586 16.6645 40.9149 16.1419 41.8648C16.0467 42.0841 15.8801 42.1067 15.6429 42.1067H10.7611C10.5693 42.1067 10.5461 41.9625 10.6542 41.7917L17.5316 30.2059L10.8323 18.5837C10.7106 18.4179 10.8153 18.2411 11.0105 18.2548H16.0349C16.2524 18.2425 16.4447 18.3246 16.5694 18.5106C16.997 19.4854 17.4722 20.46 17.9948 21.4345C18.5171 22.4093 19.0457 23.3717 19.5805 24.3217C20.115 25.272 20.6436 26.2344 21.095 27.209C21.5699 26.2102 22.0509 25.2356 22.5382 24.2852C23.0248 23.335 23.5237 22.3786 24.0348 21.4162C24.5454 20.4539 25.0384 19.4976 25.5136 18.5472C25.5768 18.3387 25.7277 18.233 25.9413 18.2548H30.6093C30.7875 18.2548 30.8612 18.498 30.7875 18.6203Z" fill="#FF61F6"/>
<path d="M41.0117 42.5592C37.8691 42.6082 34.5774 41.3143 32.9228 38.4475C32.1148 37.0712 31.711 35.3474 31.7112 33.276C31.6978 31.5986 32.1157 29.9472 32.9228 28.4882C35.0052 24.7657 39.2005 23.371 43.1855 23.737V16.537C43.1855 16.3668 43.2568 16.2812 43.3993 16.2812H47.8891C48.0118 16.2632 48.1205 16.3746 48.1031 16.5004V38.1003C48.1031 38.9915 48.1914 39.8795 48.2456 40.7683C48.2543 40.9201 48.1665 41.0702 48.0317 41.1338C45.8133 42.0827 43.4129 42.5482 41.0117 42.5592ZM43.1855 38.0272V28.0496C39.9309 27.1453 36.7709 29.6244 36.7713 33.0567C36.694 36.6052 39.7529 39.0568 43.1855 38.0272Z" fill="#FF61F6"/>
</g>
<defs>
<clipPath id="clip0_35_1346">
<rect width="54" height="54" fill="white" transform="translate(3 3)"/>
</clipPath>
</defs>
</svg>
