<svg width="60" height="60" viewBox="0 0 60 60" fill="none" xmlns="http://www.w3.org/2000/svg">
<g clip-path="url(#clip0_35_1071)">
<path fill-rule="evenodd" clip-rule="evenodd" d="M29.9199 30.5588C29.9199 26.0185 33.6005 22.3379 38.1408 22.3379C42.681 22.3379 46.3616 26.0185 46.3616 30.5588C46.3616 35.099 42.681 38.7796 38.1408 38.7796C33.6005 38.7796 29.9199 35.099 29.9199 30.5588Z" fill="#1ABCFE"/>
<path fill-rule="evenodd" clip-rule="evenodd" d="M13.4766 47.0022C13.4766 42.4619 17.1572 38.7812 21.6974 38.7812H29.9183V47.0022C29.9183 51.5424 26.2377 55.2229 21.6974 55.2229C17.1572 55.2229 13.4766 51.5424 13.4766 47.0022Z" fill="#0ACF83"/>
<path fill-rule="evenodd" clip-rule="evenodd" d="M29.9199 5.89648V22.3382H38.1408C42.681 22.3382 46.3616 18.6576 46.3616 14.1173C46.3616 9.57708 42.681 5.89648 38.1408 5.89648H29.9199Z" fill="#FF7262"/>
<path fill-rule="evenodd" clip-rule="evenodd" d="M13.4766 14.1173C13.4766 18.6576 17.1572 22.3382 21.6974 22.3382H29.9183V5.89648H21.6974C17.1572 5.89648 13.4766 9.57708 13.4766 14.1173Z" fill="#F24E1E"/>
<path fill-rule="evenodd" clip-rule="evenodd" d="M13.4766 30.5588C13.4766 35.099 17.1572 38.7796 21.6974 38.7796H29.9183V22.3379H21.6974C17.1572 22.3379 13.4766 26.0185 13.4766 30.5588Z" fill="#A259FF"/>
</g>
<defs>
<clipPath id="clip0_35_1071">
<rect width="34" height="51" fill="white" transform="translate(13.002 5)"/>
</clipPath>
</defs>
</svg>
