<svg width="60" height="60" viewBox="0 0 60 60" fill="none" xmlns="http://www.w3.org/2000/svg">
<g clip-path="url(#clip0_35_1377)">
<path d="M3.23828 22.2241C3.23828 15.4951 3.23828 12.1305 4.54784 9.56035C5.69977 7.29957 7.53785 5.46149 9.79863 4.30957C12.3688 3 15.7333 3 22.4624 3H37.1334C43.8625 3 47.2271 3 49.7972 4.30957C52.058 5.46149 53.8961 7.29957 55.048 9.56035C56.3576 12.1305 56.3576 15.4951 56.3576 22.2241V36.8952C56.3576 43.6243 56.3576 46.9888 55.048 49.559C53.8961 51.8198 52.058 53.6578 49.7972 54.8098C47.2271 56.1193 43.8625 56.1193 37.1334 56.1193H22.4624C15.7333 56.1193 12.3688 56.1193 9.79863 54.8098C7.53785 53.6578 5.69977 51.8198 4.54784 49.559C3.23828 46.9888 3.23828 43.6243 3.23828 36.8952V22.2241Z" fill="#00005B"/>
<path d="M25.6055 36.3215H17.374L15.6992 41.6677C15.6527 41.866 15.4701 42.0064 15.2716 41.9966H11.1023C10.8646 41.9966 10.7814 41.8626 10.8529 41.5946L17.9797 20.63C18.0511 20.4108 18.1223 20.1964 18.1936 19.916C18.2868 19.4284 18.3345 18.9328 18.3361 18.4358C18.3157 18.289 18.4424 18.159 18.5856 18.18H24.2513C24.4173 18.18 24.5124 18.2409 24.5364 18.3627L32.6255 41.6311C32.6967 41.875 32.6254 41.9968 32.4116 41.9966H27.7791C27.6166 42.0151 27.4615 41.9037 27.4228 41.7408L25.6055 36.3215ZM18.6568 31.8137H24.287C23.362 28.6528 22.318 25.5334 21.472 22.3478C20.5131 25.6522 19.6278 28.7168 18.6568 31.8137Z" fill="#9999FF"/>
<path d="M38.6412 34.2558C38.9688 36.9705 41.2483 38.2647 43.7725 38.2095C45.1959 38.1815 46.717 37.9606 48.047 37.4224C48.1655 37.3253 48.2252 37.3858 48.2252 37.6052V41.0772C48.2364 41.2578 48.161 41.4192 48.0113 41.5157C46.3583 42.2667 44.4607 42.4931 42.6678 42.4644C37.3221 42.4644 33.6509 38.6978 33.6524 33.2177C33.6384 28.0246 37.0075 23.6433 42.2402 23.6433C46.6758 23.5283 49.7467 27.0797 49.759 31.5C49.759 32.3051 49.7141 33.113 49.6165 33.9122C49.5976 34.0768 49.4574 34.2046 49.2957 34.2046C45.7532 34.2046 42.1934 34.2558 38.6412 34.2558ZM38.6412 30.9264C40.6154 30.9264 42.6011 30.9962 44.5742 30.9081C44.8708 30.8778 45.091 30.8216 45.091 30.5132C45.0498 28.8744 43.6669 27.5267 42.0621 27.5894C40.1231 27.4692 38.8822 29.1059 38.6412 30.9264Z" fill="#9999FF"/>
</g>
<defs>
<clipPath id="clip0_35_1377">
<rect width="54" height="54" fill="white" transform="translate(3 3)"/>
</clipPath>
</defs>
</svg>
