<svg width="60" height="60" viewBox="0 0 60 60" fill="none" xmlns="http://www.w3.org/2000/svg">
<g clip-path="url(#clip0_35_1388)">
<path d="M3.35938 22.2241C3.35938 15.4951 3.35938 12.1305 4.66894 9.56035C5.82087 7.29957 7.65894 5.46149 9.91972 4.30957C12.4899 3 15.8544 3 22.5835 3H37.2545C43.9836 3 47.3481 3 49.9183 4.30957C52.1791 5.46149 54.0172 7.29957 55.1691 9.56035C56.4787 12.1305 56.4787 15.4951 56.4787 22.2241V36.8952C56.4787 43.6243 56.4787 46.9888 55.1691 49.559C54.0172 51.8198 52.1791 53.6578 49.9183 54.8098C47.3481 56.1193 43.9836 56.1193 37.2545 56.1193H22.5835C15.8544 56.1193 12.4899 56.1193 9.91972 54.8098C7.65894 53.6578 5.82087 51.8198 4.66894 49.559C3.35938 46.9888 3.35938 43.6243 3.35938 36.8952V22.2241Z" fill="#330000"/>
<path d="M29.0977 36.3816H20.8662L19.1914 41.7176C19.1449 41.9158 18.9623 42.0562 18.7638 42.0465H14.5946C14.3568 42.0465 14.2737 41.9125 14.3451 41.6445L21.4719 20.5929C21.5433 20.3736 21.6145 20.1239 21.6858 19.8436C21.779 19.356 21.8267 18.8604 21.8283 18.3635C21.8079 18.2167 21.9369 18.087 22.0778 18.1076H27.7435C27.9095 18.1076 28.0046 18.1685 28.0286 18.2904L36.1177 41.681C36.1889 41.9248 36.1176 42.0467 35.9038 42.0465H31.2713C31.1088 42.065 30.9537 41.9536 30.915 41.7907L29.0977 36.3816ZM22.149 31.7765H27.7792C26.8542 28.6156 25.8103 25.4962 24.9642 22.3106C24.0513 25.5016 23.0553 28.6797 22.149 31.7765Z" fill="#FF9A00"/>
<path d="M40.9293 21.9817C40.5659 21.9967 40.2034 21.9328 39.8657 21.7942C39.528 21.6557 39.2226 21.4456 38.9694 21.1776C38.717 20.8981 38.521 20.5701 38.3925 20.2126C38.2641 19.8551 38.2058 19.4751 38.2211 19.0944C38.2081 18.7175 38.2728 18.342 38.411 17.9925C38.5491 17.643 38.7576 17.3272 39.0228 17.066C39.2855 16.8074 39.5955 16.6049 39.935 16.47C40.2744 16.3351 40.6366 16.2706 41.0005 16.2802C41.8558 16.2802 42.5269 16.5421 43.0139 17.066C43.2597 17.3382 43.4508 17.6575 43.5761 18.0056C43.7015 18.3536 43.7586 18.7236 43.7444 19.0944C43.7593 19.4766 43.6991 19.8579 43.5675 20.2158C43.4359 20.5737 43.2355 20.9008 42.9783 21.1776C42.7094 21.4495 42.3885 21.6613 42.0359 21.7997C41.6832 21.938 41.3065 22 40.9293 21.9817ZM38.4705 41.681V24.2111C38.4705 23.9918 38.5652 23.8821 38.7556 23.8821H43.1386C43.3285 23.8821 43.4235 23.9918 43.4237 24.2111V41.681C43.4237 41.9248 43.3287 42.0467 43.1386 42.0465H38.7912C38.5775 42.0465 38.4706 41.9246 38.4705 41.681Z" fill="#FF9A00"/>
</g>
<defs>
<clipPath id="clip0_35_1388">
<rect width="54" height="54" fill="white" transform="translate(3 3)"/>
</clipPath>
</defs>
</svg>
