<svg width="60" height="60" viewBox="0 0 60 60" fill="none" xmlns="http://www.w3.org/2000/svg">
<g clip-path="url(#clip0_35_1405)">
<path d="M38.9337 54.1205C49.5026 54.1205 58.0704 46.0228 58.0704 36.0339C58.0704 26.045 49.5026 17.9473 38.9337 17.9473C28.3647 17.9473 19.7969 26.045 19.7969 36.0339C19.7969 46.0228 28.3647 54.1205 38.9337 54.1205Z" fill="#FFAB2D"/>
<path d="M38.9337 48.0536C45.9582 48.0536 51.6526 42.6716 51.6526 36.0326C51.6526 29.3937 45.9582 24.0117 38.9337 24.0117C31.9092 24.0117 26.2148 29.3937 26.2148 36.0326C26.2148 42.6716 31.9092 48.0536 38.9337 48.0536Z" fill="white"/>
<path d="M38.9343 42.7594C42.8655 42.7594 46.0523 39.7474 46.0523 36.032C46.0523 32.3167 42.8655 29.3047 38.9343 29.3047C35.0032 29.3047 31.8164 32.3167 31.8164 36.032C31.8164 39.7474 35.0032 42.7594 38.9343 42.7594Z" fill="#1B5090"/>
<path fill-rule="evenodd" clip-rule="evenodd" d="M32.1209 5.70608L50.5216 21.5696C50.8436 21.8466 51.0931 22.1782 51.2703 22.5643C51.4474 22.9505 51.5359 23.3559 51.5359 23.7807C51.5359 24.5862 51.251 25.2738 50.6815 25.8433C50.1118 26.4131 49.4243 26.6979 48.6187 26.6979C48.2696 26.6979 47.9313 26.6372 47.6038 26.5156C47.2765 26.3942 46.9805 26.2196 46.7158 25.9917L46.7148 25.9909L28.3151 10.1283C27.9931 9.8512 27.7436 9.51961 27.5665 9.1335C27.3894 8.7474 27.3008 8.34197 27.3008 7.91718C27.3008 7.11163 27.5856 6.42404 28.1552 5.85442C28.7248 5.28481 29.4124 5 30.218 5C30.5672 5 30.9055 5.06074 31.2328 5.18221C31.5602 5.30368 31.8562 5.47831 32.1209 5.70608Z" fill="#FFAB2D"/>
<path fill-rule="evenodd" clip-rule="evenodd" d="M13.964 16.7793H37.4182C38.2237 16.7793 38.9113 17.0641 39.481 17.6338C40.0505 18.2034 40.3354 18.891 40.3354 19.6965C40.3354 20.5021 40.0505 21.1897 39.481 21.7593C38.9113 22.3289 38.2237 22.6137 37.4182 22.6137H13.964C13.1585 22.6137 12.4709 22.3289 11.9013 21.7593C11.3317 21.1897 11.0469 20.5021 11.0469 19.6965C11.0469 18.891 11.3317 18.2034 11.9013 17.6338C12.4709 17.0641 13.1585 16.7793 13.964 16.7793Z" fill="#FFAB2D"/>
<path fill-rule="evenodd" clip-rule="evenodd" d="M30.1826 24.5404C30.4998 24.2634 30.7456 23.9332 30.9199 23.5498C31.0941 23.1664 31.1812 22.7641 31.1812 22.343C31.1812 21.5374 30.8963 20.8498 30.3268 20.2802C29.7571 19.7106 29.0695 19.4258 28.264 19.4258C27.9113 19.4258 27.5697 19.4877 27.2394 19.6116C26.9091 19.7355 26.6112 19.9135 26.3453 20.1455L3.35885 40.215L3.35795 40.2158C3.0407 40.4927 2.79496 40.823 2.62072 41.2063C2.44649 41.5897 2.35938 41.992 2.35938 42.4131C2.35938 43.2187 2.64418 43.9062 3.2138 44.476C3.78342 45.0455 4.47101 45.3303 5.27657 45.3303C5.62932 45.3303 5.97086 45.2684 6.30114 45.1445C6.63142 45.0207 6.92943 44.8427 7.19517 44.6107L7.19608 44.6099L30.1826 24.5404Z" fill="#FFAB2D"/>
</g>
<defs>
<clipPath id="clip0_35_1405">
<rect width="57" height="50" fill="white" transform="translate(2 5)"/>
</clipPath>
</defs>
</svg>
