<svg width="60" height="60" viewBox="0 0 60 60" fill="none" xmlns="http://www.w3.org/2000/svg">
<path d="M35.1278 29.9017C35.1278 27.4071 33.0422 25.3848 30.4691 25.3848C27.8963 25.3848 25.8105 27.4071 25.8105 29.9017C25.8105 32.3964 27.8963 34.4188 30.4691 34.4188C33.0422 34.4188 35.1278 32.3964 35.1278 29.9017Z" fill="#53C1DE"/>
<path fill-rule="evenodd" clip-rule="evenodd" d="M45.6003 21.5154C46.5842 17.6393 47.8208 10.4514 43.4613 8.01444C39.1224 5.58812 33.4759 10.2374 30.4944 13.0281C27.5215 10.2652 21.7165 5.63581 17.3607 8.08048C13.0234 10.5149 14.3609 17.5837 15.3665 21.4841C11.3205 22.5983 4.38477 24.9982 4.38477 29.9014C4.38477 34.7907 11.3133 37.4016 15.3353 38.5147C14.326 42.4368 13.0555 49.4046 17.3983 51.8335C21.7703 54.2778 27.5573 49.7586 30.5664 46.9374C33.5671 49.7445 39.1594 54.2932 43.4992 51.8575C47.8528 49.4139 46.7189 42.3223 45.7132 38.3992C49.6121 37.2837 56.5555 34.7296 56.5555 29.9014C56.5555 25.0453 49.5826 22.6259 45.6003 21.5154ZM45.1062 36.3202C44.4459 34.2936 43.5546 32.1384 42.4644 29.9121C43.505 27.7384 44.3616 25.611 45.0035 23.5974C47.9228 24.418 54.327 26.2936 54.327 29.9014C54.327 33.543 48.1815 35.4363 45.1062 36.3202ZM42.3824 49.9873C39.1445 51.8046 34.3345 47.4546 32.1185 45.3874C33.5885 43.8284 35.0577 42.016 36.4915 40.0034C39.0137 39.7865 41.3965 39.4317 43.5574 38.9475C44.2652 41.7224 45.6348 48.1618 42.3824 49.9873ZM18.5119 49.9613C15.2735 48.1509 16.7537 41.9332 17.4962 39.0442C19.6331 39.5024 21.9986 39.8322 24.5268 40.031C25.9701 42.0003 27.4817 43.8105 29.0051 45.3956C27.123 47.161 21.7655 51.7802 18.5119 49.9613ZM6.61331 29.9014C6.61331 26.246 12.9791 24.3842 15.965 23.5656C16.6179 25.6244 17.4743 27.7771 18.5078 29.954C17.4609 32.1633 16.5923 34.3502 15.9334 36.4333C13.0863 35.6431 6.61331 33.559 6.61331 29.9014ZM18.4773 9.95063C21.7289 8.12574 26.7742 12.5701 28.9326 14.5705C27.4171 16.1485 25.9193 17.945 24.4885 19.9029C22.0348 20.1234 19.686 20.4776 17.5267 20.952C16.7166 17.8061 15.2292 11.7736 18.4773 9.95063ZM38.0858 22.2517C39.7505 22.4554 41.3452 22.7263 42.8428 23.0578C42.3933 24.455 41.8329 25.9159 41.173 27.4136C40.2163 25.6536 39.1894 23.929 38.0858 22.2517ZM30.4951 16.1147C31.523 17.1944 32.5525 18.4001 33.5652 19.7082C31.511 19.6141 29.4533 19.6136 27.3991 19.7068C28.4127 18.4109 29.451 17.2069 30.4951 16.1147ZM19.7864 27.412C19.1374 25.9195 18.5821 24.4521 18.1286 23.035C19.6172 22.712 21.2046 22.448 22.8584 22.2477C21.7517 23.9213 20.7265 25.6452 19.7864 27.412ZM22.906 37.7093C21.1974 37.5244 19.586 37.2739 18.0979 36.9598C18.5586 35.5177 19.1261 34.0187 19.789 32.4942C20.7421 34.2792 21.7828 36.0198 22.906 37.7093ZM30.5567 43.8407C29.5004 42.7355 28.4469 41.5132 27.4178 40.1984C29.4838 40.2771 31.5538 40.2773 33.6195 40.1879C32.6036 41.5266 31.5777 42.7507 30.5567 43.8407ZM41.1942 32.4165C41.8915 33.9576 42.4794 35.4485 42.9462 36.8662C41.4334 37.2009 39.8004 37.4704 38.0795 37.6706C39.1914 35.9616 40.2345 34.2102 41.1942 32.4165ZM35.2477 37.9325C32.0877 38.1514 28.9077 38.1491 25.7466 37.9504C23.9503 35.4063 22.3514 32.7309 20.9711 29.9533C22.3446 27.1815 23.932 24.5113 25.7198 21.9712C28.8834 21.7393 32.0663 21.7388 35.2297 21.9726C37.002 24.5125 38.5871 27.1758 39.9925 29.9226C38.6037 32.6931 37.0081 35.3687 35.2477 37.9325ZM42.3482 9.88638C45.6007 11.7053 44.1529 18.1653 43.4424 20.9743C41.2781 20.4901 38.9276 20.1297 36.4668 19.9058C35.0332 17.9267 33.5479 16.127 32.0568 14.5694C34.243 12.5259 39.1272 8.08526 42.3482 9.88638Z" fill="#53C1DE"/>
</svg>
