<svg width="60" height="60" viewBox="0 0 60 60" fill="none" xmlns="http://www.w3.org/2000/svg">
<g clip-path="url(#clip0_35_1351)">
<path d="M43.0968 50.1488C36.8351 53.7505 28.2254 54.1206 19.5633 50.424C12.5498 47.4529 6.73048 42.2521 3 36.3098C4.79064 37.7953 6.87968 38.9843 9.11791 40.0237C18.0633 44.1985 27.0068 43.9126 33.3008 40.0344C24.3476 33.1997 16.728 24.2742 11.058 16.9947C9.86376 15.8059 8.96844 14.3201 8.07312 12.983C14.9371 19.2232 25.8306 27.0972 29.7094 29.3269C21.5036 20.7087 14.1913 10.0118 14.4891 10.3084C27.4715 23.3833 39.5589 30.8125 39.5589 30.8125C39.9587 31.0369 40.2673 31.224 40.5155 31.391C40.7772 30.7283 41.0066 30.0403 41.1998 29.3269C43.2888 21.7494 40.9019 13.1313 35.6787 6C47.7647 13.2802 54.9281 26.9489 51.9428 38.39C51.865 38.6986 51.7805 39.0032 51.6892 39.3024C57.6571 46.7316 56.1209 54.7339 55.3749 53.2484C52.1374 46.94 46.1438 48.869 43.0968 50.1488Z" fill="url(#paint0_linear_35_1351)"/>
</g>
<defs>
<linearGradient id="paint0_linear_35_1351" x1="29.5792" y1="6" x2="29.5792" y2="53.4304" gradientUnits="userSpaceOnUse">
<stop stop-color="#F88A36"/>
<stop offset="1" stop-color="#FD2020"/>
</linearGradient>
<clipPath id="clip0_35_1351">
<rect width="54" height="48" fill="white" transform="translate(3 6)"/>
</clipPath>
</defs>
</svg>
