<svg width="84" height="81" viewBox="0 0 84 81" fill="none" xmlns="http://www.w3.org/2000/svg">
<path d="M51.8877 24.9581C51.8877 24.9581 51.8877 16.9972 59.8486 16.9972C67.8095 16.9972 67.8095 9.03627 67.8095 9.03627M29.9004 67.4163L14.7367 52.2527M43.5477 6.76172V14.3435M67.8095 38.6054L73.1168 43.9127M67.8095 27.9908L75.3914 24.9581M22.3186 34.0563L48.0968 59.8345M8.08633 70.6734L25.9846 21.4032C26.1378 20.9816 26.3951 20.6056 26.7326 20.3101C27.0701 20.0145 27.4768 19.8091 27.9149 19.7128C28.353 19.6166 28.8084 19.6326 29.2387 19.7595C29.6689 19.8863 30.0602 20.1199 30.376 20.4385L61.7146 51.7771C62.0332 52.0929 62.2667 52.4841 62.3936 52.9144C62.5205 53.3447 62.5365 53.8 62.4402 54.2382C62.344 54.6763 62.1385 55.083 61.843 55.4205C61.5475 55.7579 61.1714 56.0152 60.7498 56.1685L11.4797 74.0667C11.0057 74.2479 10.4893 74.288 9.99304 74.1822C9.49674 74.0763 9.0417 73.829 8.68286 73.4702C8.32403 73.1114 8.07676 72.6563 7.9709 72.16C7.86505 71.6637 7.90514 71.1474 8.08633 70.6734Z" stroke="#7605C1" stroke-width="1.73913" stroke-linecap="round" stroke-linejoin="round"/>
</svg>
