<svg width="84" height="81" viewBox="0 0 84 81" fill="none" xmlns="http://www.w3.org/2000/svg">
<path d="M28.7305 74.9336H55.0642" stroke="#7605C1" stroke-width="1.73913" stroke-linecap="round" stroke-linejoin="round"/>
<path d="M25.2416 53.414C22.024 50.9263 19.418 47.7431 17.621 44.1055C15.8241 40.4679 14.8833 36.4714 14.8699 32.4187C14.8023 17.8395 26.593 5.71262 41.2553 5.37669C46.9299 5.24293 52.5028 6.88904 57.1837 10.0815C61.8646 13.2741 65.4157 17.8509 67.3336 23.163C69.2515 28.4751 69.4387 34.2527 67.8686 39.6765C66.2986 45.1003 63.0511 49.895 58.5865 53.3804C57.6003 54.1384 56.8015 55.1106 56.2511 56.2227C55.7007 57.3347 55.4133 58.5572 55.4108 59.7966V61.8121C55.4108 62.5249 55.1261 63.2084 54.6192 63.7124C54.1124 64.2164 53.4249 64.4996 52.7081 64.4996H31.0863C30.3695 64.4996 29.682 64.2164 29.1752 63.7124C28.6683 63.2084 28.3836 62.5249 28.3836 61.8121V59.7966C28.3751 58.5665 28.0883 57.354 27.5444 56.2491C27.0005 55.1443 26.2135 54.1753 25.2416 53.414V53.414Z" stroke="#7605C1" stroke-width="1.73913" stroke-linecap="round" stroke-linejoin="round"/>
<path d="M44.6685 16.5C47.9527 17.0603 50.9832 18.6327 53.3416 21.0002C55.7001 23.3677 57.2702 26.4136 57.8353 29.7174" stroke="#7605C1" stroke-width="1.73913" stroke-linecap="round" stroke-linejoin="round"/>
</svg>
