<svg width="84" height="81" viewBox="0 0 84 81" fill="none" xmlns="http://www.w3.org/2000/svg">
<g clip-path="url(#clip0_329_1145)">
<path d="M27.1993 52.6196C37.5179 52.6196 45.8827 44.2226 45.8827 33.8645C45.8827 23.5063 37.5179 15.1094 27.1993 15.1094C16.8807 15.1094 8.51587 23.5063 8.51587 33.8645C8.51587 44.2226 16.8807 52.6196 27.1993 52.6196Z" stroke="#7605C1" stroke-width="1.73913" stroke-linecap="round" stroke-linejoin="round"/>
<path d="M51.2209 15.7947C52.865 15.345 54.5603 15.1146 56.2637 15.1094C61.1961 15.1094 65.9264 17.0854 69.4141 20.6026C72.9018 24.1199 74.8612 28.8903 74.8612 33.8645C74.8612 38.8386 72.9018 43.6091 69.4141 47.1263C65.9264 50.6436 61.1961 52.6196 56.2637 52.6196" stroke="#7605C1" stroke-width="1.73913" stroke-linecap="round" stroke-linejoin="round"/>
<path d="M1.65234 65.6329C4.53326 61.6128 8.35849 58.3317 12.8049 56.0667C17.2514 53.8016 22.1884 52.6191 27.1991 52.6191C32.2097 52.6191 37.1467 53.8016 41.5932 56.0667C46.0396 58.3317 49.8649 61.6128 52.7458 65.6329" stroke="#7605C1" stroke-width="1.73913" stroke-linecap="round" stroke-linejoin="round"/>
<path d="M56.5593 52.6191C61.4956 52.6161 66.3599 53.7972 70.7405 56.0625C75.121 58.3278 78.8888 61.6106 81.7247 65.6329" stroke="#7605C1" stroke-width="1.73913" stroke-linecap="round" stroke-linejoin="round"/>
</g>
<defs>
<clipPath id="clip0_329_1145">
<rect width="83.4783" height="80" fill="white" transform="translate(0.260986 0.5)"/>
</clipPath>
</defs>
</svg>
