<svg width="80" height="71" viewBox="0 0 80 71" fill="none" xmlns="http://www.w3.org/2000/svg">
<path d="M72.9688 9.375H56.4062V7.03125C56.4062 3.15422 53.252 0 49.375 0H30.625C26.748 0 23.5938 3.15422 23.5938 7.03125V9.375H7.03125C3.15422 9.375 0 12.5292 0 16.4062V67.9688C0 69.2631 1.04937 70.3125 2.34375 70.3125H77.6562C78.9506 70.3125 80 69.2631 80 67.9688V16.4062C80 12.5292 76.8458 9.375 72.9688 9.375ZM28.2812 7.03125C28.2812 5.73891 29.3327 4.6875 30.625 4.6875H49.375C50.6673 4.6875 51.7188 5.73891 51.7188 7.03125V9.375H28.2812V7.03125ZM75.3125 65.625H4.6875V39.8373C6.6475 41.312 9.08266 42.1875 11.7188 42.1875H28.6844C29.6519 44.9153 32.257 46.875 35.3125 46.875H44.6875C47.743 46.875 50.3481 44.9153 51.3156 42.1875H68.2812C70.9173 42.1875 73.3525 41.312 75.3125 39.8373V65.625ZM32.9688 39.8438V37.5H47.0312V39.8438C47.0312 41.1361 45.9798 42.1875 44.6875 42.1875H35.3125C34.0202 42.1875 32.9688 41.1361 32.9688 39.8438ZM75.3125 30.4688C75.3125 34.3458 72.1583 37.5 68.2812 37.5H51.7188V35.1562C51.7188 33.8619 50.6694 32.8125 49.375 32.8125H30.625C29.3306 32.8125 28.2812 33.8619 28.2812 35.1562V37.5H11.7188C7.84172 37.5 4.6875 34.3458 4.6875 30.4688V16.4062C4.6875 15.1139 5.73891 14.0625 7.03125 14.0625H72.9688C74.2611 14.0625 75.3125 15.1139 75.3125 16.4062V30.4688Z" fill="white"/>
</svg>
