<svg width="80" height="80" viewBox="0 0 80 80" fill="none" xmlns="http://www.w3.org/2000/svg">
<path d="M40 80C17.9444 80 0 62.0556 0 40C0 17.9444 17.9444 0 40 0C62.0556 0 80 17.9444 80 40C80 62.0556 62.0556 80 40 80ZM40 5C20.7006 5 5 20.7006 5 40C5 59.2994 20.7006 75 40 75C59.2994 75 75 59.2994 75 40C75 20.7006 59.2994 5 40 5ZM34.2675 54.2675L59.2675 29.2675C60.2444 28.2906 60.2444 26.7087 59.2675 25.7325C58.2906 24.7563 56.7087 24.7556 55.7325 25.7325L32.5 48.965L24.2675 40.7325C23.2906 39.7556 21.7087 39.7556 20.7325 40.7325C19.7563 41.7094 19.7556 43.2913 20.7325 44.2675L30.7325 54.2675C31.2206 54.7556 31.8606 55 32.5 55C33.1394 55 33.7794 54.7556 34.2675 54.2675Z" fill="white"/>
</svg>
