<svg width="80" height="77" viewBox="0 0 80 77" fill="none" xmlns="http://www.w3.org/2000/svg">
<path d="M60.7228 76.7377C59.671 76.7384 58.6351 76.4815 57.7055 75.9896L40.4352 66.9125C40.3014 66.841 40.152 66.8036 40.0002 66.8036C39.8484 66.8036 39.699 66.841 39.5652 66.9125L22.2977 75.9896C21.2277 76.5527 20.0214 76.8051 18.8154 76.7181C17.6093 76.6312 16.4517 76.2085 15.4734 75.4978C14.4952 74.7871 13.7353 73.8168 13.2799 72.6967C12.8245 71.5766 12.6917 70.3513 12.8965 69.1596L16.1937 49.9332C16.2191 49.7826 16.207 49.628 16.1587 49.4831C16.1104 49.3382 16.0273 49.2073 15.9166 49.102L1.95748 35.4781C1.09079 34.6337 0.477912 33.5635 0.188295 32.3886C-0.101322 31.2138 -0.0561027 29.9813 0.31883 28.8308C0.693762 27.6804 1.38342 26.6579 2.30966 25.8793C3.2359 25.1007 4.36169 24.5971 5.55949 24.4255L24.8524 21.6242C25.0025 21.6024 25.1451 21.5443 25.2677 21.455C25.3903 21.3657 25.4893 21.2478 25.5562 21.1116L34.1816 3.61421C34.7158 2.52951 35.5431 1.61606 36.5698 0.977302C37.5964 0.338546 38.7814 0 39.9905 0C41.1996 0 42.3846 0.338546 43.4113 0.977302C44.4379 1.61606 45.2652 2.52951 45.7994 3.61421L54.4304 21.1061C54.4978 21.2419 54.597 21.3593 54.7195 21.4486C54.842 21.5378 54.9843 21.5962 55.1342 21.6187L74.4437 24.4227C75.6409 24.5953 76.7659 25.0994 77.6915 25.8782C78.6171 26.6569 79.3062 27.6791 79.681 28.8291C80.0558 29.9792 80.1013 31.2112 79.8123 32.3857C79.5233 33.5603 78.9114 34.6305 78.0457 35.4753L64.0727 49.0909C63.9624 49.1965 63.8796 49.3274 63.8313 49.4723C63.783 49.6171 63.7708 49.7715 63.7956 49.9222L67.0928 69.1486C67.2515 70.0775 67.2057 71.0299 66.9589 71.9394C66.712 72.849 66.2699 73.6937 65.6633 74.415C65.0568 75.1363 64.3003 75.7168 63.4466 76.116C62.5929 76.5152 61.6625 76.7236 60.7201 76.7266L60.7228 76.7377ZM40.0002 61.2602C41.0511 61.2599 42.086 61.5168 43.0148 62.0083L60.2823 71.0826C60.4351 71.1699 60.6104 71.21 60.786 71.1976C60.9616 71.1853 61.1296 71.1211 61.2687 71.0133C61.4138 70.9137 61.5266 70.7738 61.5931 70.6108C61.6596 70.4478 61.6768 70.2689 61.6427 70.0962L58.3427 50.867C58.1665 49.8321 58.2438 48.7699 58.5681 47.7714C58.8924 46.773 59.4539 45.8681 60.2047 45.1343L74.1777 31.5159C74.3025 31.3937 74.3906 31.2392 74.4321 31.0696C74.4736 30.9 74.4669 30.7222 74.4128 30.5562C74.3586 30.3902 74.2591 30.2427 74.1255 30.1303C73.9919 30.0178 73.8296 29.945 73.6568 29.9199L54.35 27.1131C53.3106 26.9626 52.3234 26.5613 51.4738 25.9439C50.6242 25.3265 49.9376 24.5115 49.4735 23.5693L40.8314 6.07465C40.754 5.91809 40.6344 5.78629 40.4861 5.69414C40.3377 5.60198 40.1665 5.55315 39.9919 5.55315C39.8172 5.55315 39.6461 5.60198 39.4977 5.69414C39.3494 5.78629 39.2297 5.91809 39.1524 6.07465L30.5269 23.5638C30.0625 24.5063 29.3756 25.3215 28.5254 25.939C27.6753 26.5564 26.6875 26.9575 25.6476 27.1076L6.34362 29.9199C6.17047 29.9444 6.00768 30.017 5.87378 30.1295C5.73989 30.242 5.64027 30.3898 5.58627 30.5562C5.53228 30.7225 5.52607 30.9006 5.56836 31.0703C5.61065 31.24 5.69974 31.3944 5.82548 31.5159L19.7957 45.1343C20.5465 45.8681 21.1081 46.773 21.4324 47.7714C21.7567 48.7699 21.834 49.8321 21.6577 50.867L18.3577 70.0962C18.3278 70.2689 18.3469 70.4466 18.413 70.609C18.4791 70.7714 18.5894 70.912 18.7315 71.0148C18.8735 71.1176 19.0416 71.1784 19.2165 71.1904C19.3914 71.2024 19.5662 71.165 19.7209 71.0826L36.9856 62.0055C37.9151 61.516 38.9497 61.2602 40.0002 61.2602Z" fill="white"/>
</svg>
