<svg width="78" height="80" viewBox="0 0 78 80" fill="none" xmlns="http://www.w3.org/2000/svg">
<path d="M75.4329 54.3873C77.0724 52.2961 77.8586 50.0544 77.7583 47.7457C77.6579 45.2028 76.5203 43.212 75.5834 41.9908C76.6708 39.2806 77.0891 35.0146 73.4588 31.7022C70.7988 29.2765 66.2819 28.189 60.0251 28.4902C55.6253 28.6909 51.9448 29.5107 51.7942 29.5441H51.7775C50.941 29.6947 50.0544 29.8787 49.151 30.0795C49.0841 29.0088 49.2681 26.3488 51.2422 20.3597C53.5843 13.233 53.4504 7.77917 50.8072 4.13216C48.0301 0.301129 43.5968 0 42.2919 0C41.0372 0 39.8829 0.518611 39.0632 1.47219C37.2062 3.63028 37.4237 7.61188 37.6579 9.45211C35.4496 15.3743 29.2597 29.8954 24.0234 33.9272C23.923 33.9941 23.8394 34.0778 23.7557 34.1614C22.2166 35.7842 21.1794 37.5408 20.4768 39.0799C19.4898 38.5445 18.3689 38.2434 17.1644 38.2434H6.95943C3.11167 38.2434 0 41.3718 0 45.2028V72.3881C0 76.2359 3.1284 79.3475 6.95943 79.3475H17.1644C18.6533 79.3475 20.0418 78.8791 21.1794 78.0761L25.1108 78.5445C25.7131 78.6282 36.4199 79.9833 47.4111 79.7658C49.4019 79.9163 51.2756 80 53.0155 80C56.01 80 58.6198 79.7658 60.7946 79.2974C65.9138 78.21 69.4103 76.0351 71.1836 72.8398C72.5387 70.3973 72.5387 67.9716 72.3212 66.4324C75.6504 63.4212 76.2359 60.092 76.1188 57.7499C76.0519 56.3948 75.7507 55.2405 75.4329 54.3873ZM6.95943 74.8306C5.60435 74.8306 4.51694 73.7265 4.51694 72.3881V45.1861C4.51694 43.831 5.62108 42.7436 6.95943 42.7436H17.1644C18.5194 42.7436 19.6069 43.8478 19.6069 45.1861V72.3714C19.6069 73.7265 18.5027 74.8139 17.1644 74.8139H6.95943V74.8306ZM71.1501 52.4299C70.4475 53.166 70.3137 54.2869 70.849 55.1568C70.849 55.1736 71.5349 56.3446 71.6186 57.9506C71.7357 60.1422 70.6817 62.0828 68.4734 63.739C67.6872 64.3413 67.3693 65.3785 67.7039 66.3153C67.7039 66.3321 68.4232 68.5404 67.2522 70.6315C66.1313 72.6391 63.6386 74.0778 59.8578 74.8808C56.8298 75.5332 52.7143 75.6504 47.6621 75.2488C47.5951 75.2488 47.5115 75.2488 47.4279 75.2488C36.6708 75.4831 25.7967 74.0778 25.6796 74.0611H25.6629L23.9732 73.8603C24.0736 73.3919 24.1238 72.89 24.1238 72.3881V45.1861C24.1238 44.4667 24.0067 43.7641 23.8059 43.1117C24.1071 41.9908 24.9435 39.4981 26.9176 37.3735C34.4291 31.4178 41.7733 11.3258 42.0912 10.4559C42.225 10.1046 42.2585 9.71978 42.1915 9.33501C41.9072 7.46131 42.0075 5.16938 42.409 4.48348C43.2957 4.50021 45.688 4.75115 47.1267 6.74195C48.8331 9.10079 48.7662 13.3166 46.926 18.9042C44.1154 27.4195 43.8812 31.903 46.1062 33.877C47.2104 34.8641 48.6826 34.9143 49.7532 34.5295C50.7737 34.2953 51.744 34.0945 52.6642 33.944C52.7311 33.9272 52.8147 33.9105 52.8816 33.8938C58.0176 32.7729 67.2187 32.087 70.4141 34.9979C73.1242 37.4739 71.2003 40.7528 70.9828 41.1041C70.3639 42.041 70.5479 43.2622 71.3844 44.0151C71.4011 44.0318 73.1577 45.688 73.2413 47.913C73.3082 49.4019 72.6056 50.9243 71.1501 52.4299Z" fill="white"/>
</svg>
