<svg width="80" height="80" viewBox="0 0 80 80" fill="none" xmlns="http://www.w3.org/2000/svg">
<path d="M75.3125 38.3002V28.8685C75.3125 24.2347 71.6255 20.448 67.0312 20.2827V14.4935C67.0312 11.478 64.578 9.02472 61.5625 9.02472H46.5066L44.5623 3.62051C44.0666 2.24238 43.0631 1.14113 41.7369 0.519724C40.4106 -0.101838 38.9222 -0.168088 37.5461 0.332849L10.225 10.2768C8.85031 10.7771 7.75359 11.7832 7.13672 13.1097C6.51984 14.4363 6.45719 15.9233 6.96047 17.2971L8.05812 20.2932C3.56828 20.5708 0 24.3099 0 28.8685V71.3685C0 76.1071 3.85516 79.9622 8.59375 79.9622H66.7188C71.4573 79.9622 75.3125 76.1071 75.3125 71.3685V61.6243C77.9591 61.2439 80 58.9624 80 56.2122V43.7122C80 40.9621 77.9591 38.6805 75.3125 38.3002ZM75.3125 56.2122C75.3125 56.643 74.962 56.9935 74.5312 56.9935H62.0312C58.1542 56.9935 55 53.8393 55 49.9622C55 46.0852 58.1542 42.931 62.0312 42.931H74.5312C74.962 42.931 75.3125 43.2814 75.3125 43.7122V56.2122ZM11.3619 15.6846C11.2648 15.4197 11.3359 15.1961 11.387 15.0863C11.4381 14.9766 11.5633 14.778 11.8283 14.6816L39.1492 4.73769C39.4145 4.64129 39.6381 4.71301 39.748 4.76441C39.8578 4.81582 40.0561 4.94176 40.1516 5.20738L41.525 9.02488H40.4688C37.4533 9.02488 35 11.4782 35 14.4936V20.2749H13.0436L11.3619 15.6846ZM62.3438 14.4935V20.2747H39.6875V14.4935C39.6875 14.0627 40.038 13.7122 40.4688 13.7122H61.5625C61.9933 13.7122 62.3438 14.0627 62.3438 14.4935ZM66.7188 75.2747H8.59375C6.43984 75.2747 4.6875 73.5224 4.6875 71.3685V28.8685C4.6875 26.7146 6.43984 24.9622 8.59375 24.9622H66.7188C68.8727 24.9622 70.625 26.7146 70.625 28.8685V38.2435H62.0312C55.5695 38.2435 50.3125 43.5005 50.3125 49.9622C50.3125 56.4239 55.5695 61.681 62.0312 61.681H70.625V71.3685C70.625 73.5224 68.8727 75.2747 66.7188 75.2747Z" fill="white"/>
</svg>
