<svg width="80" height="80" viewBox="0 0 80 80" fill="none" xmlns="http://www.w3.org/2000/svg">
<path d="M20.7105 67.8811C16.2811 70.4245 11.2883 71.3366 8.33185 71.6639C8.65916 68.7074 9.57132 63.7147 12.112 59.2826C12.7773 58.1263 12.3776 56.6508 11.2213 55.9854C10.0542 55.3174 8.58672 55.7225 7.92406 56.8788C3.37397 64.8146 3.32031 73.8773 3.32031 74.2609C3.32031 75.5943 4.4015 76.6755 5.73487 76.6755C6.11851 76.6755 15.1811 76.6218 23.117 72.0717C24.2733 71.4064 24.673 69.9335 24.0077 68.7745C23.3477 67.6182 21.8748 67.2158 20.7105 67.8811Z" fill="white"/>
<path d="M79.999 5.862C80.0285 4.27644 79.4302 2.79015 78.3141 1.67677C77.2008 0.563396 75.5911 0.0134142 74.137 0C67.4513 0.126093 49.4173 2.04432 32.3544 17.3606C29.3121 16.1775 24.7271 14.4203 21.2475 14.8683C16.1286 15.5256 8.56573 22.4902 1.15841 29.9217C0.176493 30.9063 -0.215201 32.3014 0.114788 33.6535C0.442094 35.011 1.43474 36.0761 2.76543 36.5027L14.5431 40.2855C13.6551 41.9059 12.7805 43.5639 11.9354 45.3131C10.873 47.5131 11.3237 50.1556 13.0568 51.8834L28.1156 66.9422C29.2209 68.0502 30.7018 68.635 32.1962 68.635C33.0413 68.635 33.8944 68.4499 34.6885 68.0663C36.4377 67.2212 38.0957 66.3466 39.7108 65.4612L43.4963 77.2362C43.9228 78.5669 44.9879 79.5595 46.3481 79.8895C46.662 79.9647 46.9786 80.0022 47.2952 80.0022C48.3281 80.0022 49.3234 79.5971 50.08 78.8432C57.5114 71.4359 64.4761 63.8757 65.1307 58.7595C65.5841 55.2477 63.8214 50.6895 62.6383 47.6472C77.952 30.5843 79.8729 12.5503 79.999 5.862ZM5.57436 32.3362C9.50472 28.422 18.0415 20.1508 21.8619 19.6598C23.5655 19.4425 26.2403 20.2501 28.4992 21.0683C24.5098 25.1918 20.6358 30.1336 17.0247 36.0117L5.57436 32.3362ZM32.5879 63.7174C32.2471 63.8837 31.8098 63.8086 31.5308 63.5296L16.4694 48.4681C16.193 48.1918 16.1152 47.7572 16.2842 47.4111C35.04 8.56093 65.3775 4.99813 74.2309 4.83179H74.2523C74.5716 4.83179 74.7808 4.97398 74.9043 5.09739C75.0062 5.19934 75.1806 5.4247 75.1752 5.77347C75.0035 14.6268 71.438 44.9644 32.5879 63.7174ZM60.3418 58.1425C59.8508 61.9601 51.5797 70.4996 47.6654 74.4273L43.9846 62.9796C49.868 59.3685 54.8098 55.4918 58.9333 51.5024C59.7543 53.7587 60.5618 56.4281 60.3418 58.1425Z" fill="white"/>
<path d="M61.8107 32.5265C65.7598 28.5746 65.7598 22.1466 61.8107 18.1947C57.9796 14.369 51.3047 14.369 47.4789 18.1947C45.5661 20.1076 44.5117 22.6536 44.5117 25.3606C44.5117 28.0676 45.5688 30.6136 47.4789 32.5265C49.3918 34.4393 51.9378 35.4937 54.6448 35.4937C57.3518 35.4937 59.8951 34.4393 61.8107 32.5265ZM58.3927 29.1112C56.3886 31.118 52.8929 31.118 50.8942 29.1112C49.8908 28.1105 49.3381 26.7771 49.3381 25.3606C49.3381 23.9441 49.8908 22.6134 50.8942 21.61C51.8949 20.6093 53.2256 20.0566 54.6421 20.0566C56.056 20.0566 57.3893 20.6093 58.39 21.61C60.4612 23.6785 60.4612 27.0427 58.3927 29.1112Z" fill="white"/>
</svg>
