<svg width="90" height="90" viewBox="0 0 90 90" fill="none" xmlns="http://www.w3.org/2000/svg">
<circle cx="45" cy="45" r="44" stroke="#717171" stroke-width="2"/>
<path d="M59.9673 29H30.0327C28.698 29 27.4179 29.5302 26.474 30.474C25.5302 31.4179 25 32.698 25 34.0327V55.9149C25 57.2497 25.5302 58.5298 26.474 59.4736C27.4179 60.4174 28.698 60.9477 30.0327 60.9477H59.9673C61.302 60.9477 62.5821 60.4174 63.526 59.4736C64.4698 58.5298 65 57.2497 65 55.9149V34.0327C65 32.698 64.4698 31.4179 63.526 30.474C62.5821 29.5302 61.302 29 59.9673 29ZM30.0327 31.0131H59.9673C60.7293 31.0109 61.4635 31.299 62.0206 31.8187C62.5778 32.3385 62.9161 33.051 62.9668 33.8113C57.9945 36.4685 53.002 39.1057 48.0096 41.763C47.3341 42.1862 46.6196 42.5435 45.8757 42.8299C45.2917 42.9451 44.6899 42.9347 44.1102 42.7994C43.5306 42.664 42.9864 42.4068 42.5138 42.0448C39.6553 40.535 36.7967 39.005 33.9582 37.4952C31.6633 36.2874 29.3281 35.0594 27.0332 33.8314C27.0799 33.0679 27.4164 32.351 27.9738 31.8272C28.5313 31.3034 29.2678 31.0122 30.0327 31.0131ZM62.9869 55.9149C62.9869 56.7158 62.6688 57.4839 62.1025 58.0501C61.5362 58.6164 60.7681 58.9346 59.9673 58.9346H30.0327C29.2319 58.9346 28.4638 58.6164 27.8975 58.0501C27.3312 57.4839 27.0131 56.7158 27.0131 55.9149V36.1163C31.764 38.6125 36.4947 41.149 41.2456 43.6653C42.0944 44.1857 43.0082 44.5919 43.9633 44.8732C45.3611 45.1004 46.7938 44.8068 47.9894 44.0478C50.9084 42.5179 53.8072 40.9678 56.7262 39.4378C58.8198 38.3105 60.8933 37.2235 62.9869 36.1163V55.9149Z" fill="white" fill-opacity="0.4"/>
</svg>
