<svg width="90" height="90" viewBox="0 0 90 90" fill="none" xmlns="http://www.w3.org/2000/svg">
<circle cx="45" cy="45" r="44" stroke="#717171" stroke-width="2"/>
<path d="M63.4963 52.9436L53.6587 48.5415C53.2773 48.3764 52.8608 48.309 52.4469 48.3454C52.0329 48.3818 51.6346 48.5208 51.2878 48.7498C51.2601 48.7674 51.2336 48.7869 51.2087 48.8081L46.0419 53.2123C45.927 53.2825 45.7964 53.3232 45.662 53.3308C45.5275 53.3384 45.3933 53.3128 45.2711 53.2561C41.8877 51.6227 38.3856 48.1477 36.7522 44.8039C36.6945 44.6827 36.6676 44.549 36.6742 44.4148C36.6807 44.2807 36.7204 44.1502 36.7897 44.0352L41.2065 38.783C41.2273 38.758 41.246 38.7309 41.2648 38.7038C41.4931 38.3576 41.6317 37.96 41.6681 37.5468C41.7044 37.1337 41.6374 36.718 41.4731 36.3372L37.0627 26.5162C36.8497 26.0188 36.4812 25.6039 36.0124 25.3338C35.5435 25.0637 34.9997 24.953 34.4626 25.0183C31.8409 25.3639 29.4346 26.6522 27.6932 28.6424C25.9519 30.6325 24.9945 33.1885 25 35.833C25 51.9165 38.0835 65 54.167 65C56.8115 65.0055 59.3675 64.0481 61.3576 62.3068C63.3478 60.5654 64.6361 58.1591 64.9817 55.5374C65.0465 55.0027 64.937 54.4614 64.6693 53.994C64.4017 53.5267 63.9902 53.1583 63.4963 52.9436ZM63.3338 55.329C63.0396 57.5494 61.9468 59.5865 60.2597 61.0597C58.5726 62.5328 56.4067 63.341 54.167 63.3333C39.0043 63.3333 26.6667 50.9957 26.6667 35.833C26.6589 33.5933 27.4672 31.4274 28.9403 29.7403C30.4135 28.0532 32.4506 26.9604 34.671 26.6662C34.7043 26.6641 34.7377 26.6641 34.771 26.6662C34.9354 26.6676 35.0957 26.7176 35.2317 26.8099C35.3678 26.9022 35.4735 27.0327 35.5356 27.185L39.9335 37.0059C39.9848 37.1259 40.0072 37.2563 39.9989 37.3866C39.9906 37.5169 39.9518 37.6434 39.8856 37.7559L35.471 43.006C35.4501 43.0331 35.4293 43.0581 35.4106 43.0872C35.1754 43.4469 35.0368 43.8611 35.0084 44.2899C34.9799 44.7187 35.0625 45.1476 35.2481 45.5352C37.0585 49.2415 40.7919 52.9478 44.5398 54.7582C44.9301 54.9426 45.3614 55.0228 45.7918 54.991C46.2223 54.9593 46.6372 54.8166 46.9961 54.5769L47.0732 54.5186L52.2462 50.1186C52.3568 50.051 52.482 50.0106 52.6113 50.0008C52.7406 49.991 52.8704 50.0121 52.9899 50.0623L62.8254 54.4707C62.9914 54.5398 63.1306 54.6607 63.2222 54.8154C63.3139 54.9701 63.353 55.1503 63.3338 55.329Z" fill="white" fill-opacity="0.4"/>
</svg>
